HIERARCHY
ROOT mixamorig:Hips
{
	OFFSET 0.000000 201.639420 0.000000
	CHANNELS 6 Xposition Yposition Zposition Xrotation Yrotation Zrotation
	JOINT mixamorig:Spine
	{
		OFFSET 0.006200 19.524994 -2.481800
		CHANNELS 3 Xrotation Yrotation Zrotation
		JOINT mixamorig:Spine1
		{
			OFFSET -0.000900 22.835007 -2.825400
			CHANNELS 3 Xrotation Yrotation Zrotation
			JOINT mixamorig:Spine2
			{
				OFFSET -0.020600 26.552490 -3.193300
				CHANNELS 3 Xrotation Yrotation Zrotation
				JOINT mixamorig:Neck
				{
					OFFSET -0.060000 30.701813 1.352200
					CHANNELS 3 Xrotation Yrotation Zrotation
					JOINT mixamorig:Head
					{
						OFFSET -0.087200 22.547607 3.670900
						CHANNELS 3 Xrotation Yrotation Zrotation
						JOINT mixamorig:HeadTop_End
						{
							OFFSET -0.830600 40.355194 7.893500
							CHANNELS 3 Xrotation Yrotation Zrotation
							End Site
							{
								OFFSET 0.000000 30.592346 0.000000
							}
						}
						JOINT mixamorig:RightEye
						{
							OFFSET -6.302100 18.118591 16.197100
							CHANNELS 3 Xrotation Yrotation Zrotation
							End Site
							{
								OFFSET 0.000000 30.592346 0.000000
							}
						}
						JOINT mixamorig:LeftEye
						{
							OFFSET 6.741500 18.382690 16.401899
							CHANNELS 3 Xrotation Yrotation Zrotation
							End Site
							{
								OFFSET 0.000000 30.592346 0.000000
							}
						}
					}
				}
				JOINT mixamorig:LeftShoulder
				{
					OFFSET 11.924900 18.230499 1.425400
					CHANNELS 3 Xrotation Yrotation Zrotation
					JOINT mixamorig:LeftArm
					{
						OFFSET 25.435989 -0.697632 -5.229300
						CHANNELS 3 Xrotation Yrotation Zrotation
						JOINT mixamorig:LeftForeArm
						{
							OFFSET 54.684776 0.000000 0.000000
							CHANNELS 3 Xrotation Yrotation Zrotation
							JOINT mixamorig:LeftHand
							{
								OFFSET 55.098175 0.000000 0.000000
								CHANNELS 3 Xrotation Yrotation Zrotation
								JOINT mixamorig:LeftHandMiddle1
								{
									OFFSET 23.369751 0.000000 0.000000
									CHANNELS 3 Xrotation Yrotation Zrotation
									JOINT mixamorig:LeftHandMiddle2
									{
										OFFSET 6.378677 0.000000 0.000000
										CHANNELS 3 Xrotation Yrotation Zrotation
										JOINT mixamorig:LeftHandMiddle3
										{
											OFFSET 6.148331 0.000000 0.000000
											CHANNELS 3 Xrotation Yrotation Zrotation
											JOINT mixamorig:LeftHandMiddle4
											{
												OFFSET 6.582504 0.000000 0.000000
												CHANNELS 3 Xrotation Yrotation Zrotation
												End Site
												{
													OFFSET -1.168900 6.395691 1.028606
												}
											}
										}
									}
								}
								JOINT mixamorig:LeftHandThumb1
								{
									OFFSET 7.235672 -3.848206 5.434273
									CHANNELS 3 Xrotation Yrotation Zrotation
									JOINT mixamorig:LeftHandThumb2
									{
										OFFSET 6.568451 -3.792297 3.792300
										CHANNELS 3 Xrotation Yrotation Zrotation
										JOINT mixamorig:LeftHandThumb3
										{
											OFFSET 6.063080 -3.500519 3.500518
											CHANNELS 3 Xrotation Yrotation Zrotation
											JOINT mixamorig:LeftHandThumb4
											{
												OFFSET 4.793182 -2.767334 2.767349
												CHANNELS 3 Xrotation Yrotation Zrotation
												End Site
												{
													OFFSET 0.101639 6.054260 1.275483
												}
											}
										}
									}
								}
								JOINT mixamorig:LeftHandIndex1
								{
									OFFSET 23.101074 -0.309540 4.992809
									CHANNELS 3 Xrotation Yrotation Zrotation
									JOINT mixamorig:LeftHandIndex2
									{
										OFFSET 6.226883 0.000000 0.000000
										CHANNELS 3 Xrotation Yrotation Zrotation
										JOINT mixamorig:LeftHandIndex3
										{
											OFFSET 6.094330 0.000000 0.000000
											CHANNELS 3 Xrotation Yrotation Zrotation
											JOINT mixamorig:LeftHandIndex4
											{
												OFFSET 5.482605 0.000000 0.000000
												CHANNELS 3 Xrotation Yrotation Zrotation
												End Site
												{
													OFFSET -1.427902 5.233032 0.797164
												}
											}
										}
									}
								}
								JOINT mixamorig:LeftHandRing1
								{
									OFFSET 22.299240 0.021149 -3.964172
									CHANNELS 3 Xrotation Yrotation Zrotation
									JOINT mixamorig:LeftHandRing2
									{
										OFFSET 6.321869 0.000000 0.000000
										CHANNELS 3 Xrotation Yrotation Zrotation
										JOINT mixamorig:LeftHandRing3
										{
											OFFSET 5.899796 0.000000 0.000000
											CHANNELS 3 Xrotation Yrotation Zrotation
											JOINT mixamorig:LeftHandRing4
											{
												OFFSET 6.517899 0.000000 0.000000
												CHANNELS 3 Xrotation Yrotation Zrotation
												End Site
												{
													OFFSET -1.637299 6.232208 0.980890
												}
											}
										}
									}
								}
								JOINT mixamorig:LeftHandPinky1
								{
									OFFSET 20.463791 -0.302338 -8.562233
									CHANNELS 3 Xrotation Yrotation Zrotation
									JOINT mixamorig:LeftHandPinky2
									{
										OFFSET 6.908646 0.000000 0.000000
										CHANNELS 3 Xrotation Yrotation Zrotation
										JOINT mixamorig:LeftHandPinky3
										{
											OFFSET 4.622849 0.000000 0.000000
											CHANNELS 3 Xrotation Yrotation Zrotation
											JOINT mixamorig:LeftHandPinky4
											{
												OFFSET 5.216080 0.000000 0.000000
												CHANNELS 3 Xrotation Yrotation Zrotation
												End Site
												{
													OFFSET -0.606308 5.116241 0.814926
												}
											}
										}
									}
								}
							}
						}
					}
				}
				JOINT mixamorig:RightShoulder
				{
					OFFSET -12.001300 18.284088 1.348900
					CHANNELS 3 Xrotation Yrotation Zrotation
					JOINT mixamorig:RightArm
					{
						OFFSET -25.308500 -0.751312 -5.164599
						CHANNELS 3 Xrotation Yrotation Zrotation
						JOINT mixamorig:RightForeArm
						{
							OFFSET -54.684429 0.000000 0.000000
							CHANNELS 3 Xrotation Yrotation Zrotation
							JOINT mixamorig:RightHand
							{
								OFFSET -55.150291 0.000000 0.000000
								CHANNELS 3 Xrotation Yrotation Zrotation
								JOINT mixamorig:RightHandMiddle1
								{
									OFFSET -23.317566 0.000000 0.000000
									CHANNELS 3 Xrotation Yrotation Zrotation
									JOINT mixamorig:RightHandMiddle2
									{
										OFFSET -6.378403 0.000000 0.000000
										CHANNELS 3 Xrotation Yrotation Zrotation
										JOINT mixamorig:RightHandMiddle3
										{
											OFFSET -6.148193 0.000000 0.000000
											CHANNELS 3 Xrotation Yrotation Zrotation
											JOINT mixamorig:RightHandMiddle4
											{
												OFFSET -6.583389 0.000000 0.000000
												CHANNELS 3 Xrotation Yrotation Zrotation
												End Site
												{
													OFFSET 1.171692 6.395905 1.029786
												}
											}
										}
									}
								}
								JOINT mixamorig:RightHandThumb1
								{
									OFFSET -7.190521 -3.860474 5.435846
									CHANNELS 3 Xrotation Yrotation Zrotation
									JOINT mixamorig:RightHandThumb2
									{
										OFFSET -6.567429 -3.791718 3.791708
										CHANNELS 3 Xrotation Yrotation Zrotation
										JOINT mixamorig:RightHandThumb3
										{
											OFFSET -6.062469 -3.500153 3.500166
											CHANNELS 3 Xrotation Yrotation Zrotation
											JOINT mixamorig:RightHandThumb4
											{
												OFFSET -4.792618 -2.767029 2.767022
												CHANNELS 3 Xrotation Yrotation Zrotation
												End Site
												{
													OFFSET -0.100327 6.053253 1.276754
												}
											}
										}
									}
								}
								JOINT mixamorig:RightHandIndex1
								{
									OFFSET -23.048981 -0.310791 4.992554
									CHANNELS 3 Xrotation Yrotation Zrotation
									JOINT mixamorig:RightHandIndex2
									{
										OFFSET -6.227539 0.000000 0.000000
										CHANNELS 3 Xrotation Yrotation Zrotation
										JOINT mixamorig:RightHandIndex3
										{
											OFFSET -6.095047 0.000000 0.000000
											CHANNELS 3 Xrotation Yrotation Zrotation
											JOINT mixamorig:RightHandIndex4
											{
												OFFSET -5.484772 0.000000 0.000000
												CHANNELS 3 Xrotation Yrotation Zrotation
												End Site
												{
													OFFSET 1.420593 5.237305 0.797056
												}
											}
										}
									}
								}
								JOINT mixamorig:RightHandRing1
								{
									OFFSET -22.246323 0.020569 -3.963762
									CHANNELS 3 Xrotation Yrotation Zrotation
									JOINT mixamorig:RightHandRing2
									{
										OFFSET -6.322128 0.000000 0.000000
										CHANNELS 3 Xrotation Yrotation Zrotation
										JOINT mixamorig:RightHandRing3
										{
											OFFSET -5.900024 0.000000 0.000000
											CHANNELS 3 Xrotation Yrotation Zrotation
											JOINT mixamorig:RightHandRing4
											{
												OFFSET -6.518356 0.000000 0.000000
												CHANNELS 3 Xrotation Yrotation Zrotation
												End Site
												{
													OFFSET 1.636398 6.232697 0.982186
												}
											}
										}
									}
								}
								JOINT mixamorig:RightHandPinky1
								{
									OFFSET -20.411011 -0.303314 -8.561701
									CHANNELS 3 Xrotation Yrotation Zrotation
									JOINT mixamorig:RightHandPinky2
									{
										OFFSET -6.907349 0.000000 0.000000
										CHANNELS 3 Xrotation Yrotation Zrotation
										JOINT mixamorig:RightHandPinky3
										{
											OFFSET -4.623840 0.000000 0.000000
											CHANNELS 3 Xrotation Yrotation Zrotation
											JOINT mixamorig:RightHandPinky4
											{
												OFFSET -5.218353 0.000000 0.000000
												CHANNELS 3 Xrotation Yrotation Zrotation
												End Site
												{
													OFFSET 0.602097 5.118835 0.816273
												}
											}
										}
									}
								}
							}
						}
					}
				}
			}
		}
	}
	JOINT mixamorig:LeftUpLeg
	{
		OFFSET 18.168400 -13.561905 -0.039000
		CHANNELS 3 Xrotation Yrotation Zrotation
		JOINT mixamorig:LeftLeg
		{
			OFFSET 0.577358 -80.825211 -3.695000
			CHANNELS 3 Xrotation Yrotation Zrotation
			JOINT mixamorig:LeftFoot
			{
				OFFSET -0.577356 -83.370262 -6.520700
				CHANNELS 3 Xrotation Yrotation Zrotation
				JOINT mixamorig:LeftToeBase
				{
					OFFSET 0.750401 -20.798306 25.135401
					CHANNELS 3 Xrotation Yrotation Zrotation
					JOINT mixamorig:LeftToe_End
					{
						OFFSET -0.000500 0.001200 19.917799
						CHANNELS 3 Xrotation Yrotation Zrotation
						End Site
						{
							OFFSET 0.000000 19.917805 0.000000
						}
					}
				}
			}
		}
	}
	JOINT mixamorig:RightUpLeg
	{
		OFFSET -18.162500 -13.585098 -0.041000
		CHANNELS 3 Xrotation Yrotation Zrotation
		JOINT mixamorig:RightLeg
		{
			OFFSET -0.595024 -80.945297 -3.631900
			CHANNELS 3 Xrotation Yrotation Zrotation
			JOINT mixamorig:RightFoot
			{
				OFFSET 0.595024 -83.218193 -6.561200
				CHANNELS 3 Xrotation Yrotation Zrotation
				JOINT mixamorig:RightToeBase
				{
					OFFSET -0.753601 -20.807106 25.115000
					CHANNELS 3 Xrotation Yrotation Zrotation
					JOINT mixamorig:RightToe_End
					{
						OFFSET 0.000299 0.001700 19.918200
						CHANNELS 3 Xrotation Yrotation Zrotation
						End Site
						{
							OFFSET 0.000000 19.918203 0.000000
						}
					}
				}
			}
		}
	}
}
MOTION
Frames: 4
Frame Time: 0.033333
-0.420343 202.001144 2.335808 21.540969 -10.664611 2.246087 16.824062 1.154155 -2.649682 1.648449 0.324900 -0.307288 1.648147 0.321223 -0.313678 2.634529 0.810259 8.233012 -14.193262 15.607990 -7.847699 -0.000002 -0.000000 0.000000 -0.000002 -0.000000 0.000000 -0.000002 -0.000000 0.000000 -0.668912 18.979269 -0.875096 -29.078837 -40.670976 -43.326571 0.000004 -105.692492 0.000014 60.788301 33.447525 46.559887 -1.320537 1.253031 -28.369800 0.262270 1.734896 -17.191682 0.109989 1.131075 -11.108102 -0.000001 0.000001 -0.000000 -8.338307 -8.349616 2.668239 6.117818 13.288089 1.237046 -6.182870 3.121507 12.933915 0.000001 0.000000 0.000002 0.922317 5.448963 -26.927252 0.196708 1.506823 -14.874055 0.010741 0.354977 -3.466054 -0.000002 0.000000 0.000001 1.394370 6.169941 -31.719433 0.069194 0.898700 -8.805357 0.148698 1.312875 -12.922931 -0.000000 0.000001 -0.000001 0.079204 4.395904 -37.997322 0.000356 0.064706 -0.631497 -0.000001 -0.000006 -0.000005 -0.000001 -0.000000 0.000001 -0.548620 -10.283942 -0.389879 -20.641404 38.029373 27.669037 0.000233 95.282997 -0.000244 48.747637 -12.836051 -77.833919 7.428137 -15.235026 32.214983 0.890807 -2.741251 35.998403 0.038920 -0.601428 7.403831 -0.000001 0.000000 -0.000001 -16.130475 6.731496 -1.911251 12.500616 -28.551488 -0.054179 2.119983 -23.480420 -15.726917 0.000000 -0.000001 0.000001 5.067054 -11.914713 30.772997 0.865797 -2.706551 35.472321 0.069996 -0.805289 9.935810 0.000001 -0.000000 -0.000001 7.253961 -14.545484 33.316406 0.651707 -2.377945 30.648380 -0.000002 -0.000009 0.000002 0.000000 0.000000 -0.000002 11.069301 -22.036253 30.690007 0.612070 -2.309826 29.679525 0.000533 -0.070454 0.864885 0.000001 -0.000000 -0.000000 -28.296027 3.585837 -4.323309 36.633976 8.236179 2.543289 -30.108546 -0.212737 0.223624 -0.090489 0.000000 0.000000 0.000000 -0.000000 -0.000000 -46.643546 0.656734 -6.669485 80.317376 -1.714817 -4.756837 -2.341953 -0.570302 8.546377 -5.506161 -0.000011 0.000005 -0.000002 -0.000001 0.000000 
-1.060092 203.604324 4.887451 21.556716 -7.767190 2.444326 17.430318 1.995233 -2.456947 1.637271 0.523462 -0.559559 1.638447 0.510484 -0.570473 2.523932 0.535950 6.900064 -14.269984 11.025238 -3.105109 0.000001 0.000000 -0.000000 0.000001 0.000000 -0.000000 0.000001 0.000000 -0.000000 -0.523723 17.790129 -2.069371 -33.781142 -46.055709 -45.838588 -0.000150 -100.299456 -0.000136 59.880692 31.946991 48.033954 -1.359368 1.338168 -29.338268 0.271181 1.763420 -17.483496 0.108615 1.124063 -11.038460 -0.000000 -0.000000 0.000000 -8.429062 -8.389574 2.631830 6.110352 13.254968 1.242841 -6.173319 3.149752 12.932051 0.000000 -0.000001 0.000003 1.122726 5.774410 -29.250797 0.228828 1.622895 -16.050203 0.009865 0.340389 -3.323482 -0.000001 0.000000 -0.000003 1.525819 6.314451 -33.868135 0.083853 0.988711 -9.695400 0.125887 1.209186 -11.886526 -0.000002 -0.000000 0.000002 0.115416 4.497960 -39.009679 0.000575 0.082246 -0.802451 0.000001 -0.000005 -0.000006 0.000002 0.000001 -0.000001 -0.298847 -7.204929 -0.352653 -18.959324 29.308000 25.437513 -0.000308 98.628635 0.000314 48.662349 -13.598851 -76.524504 7.401398 -15.235055 32.109348 0.891045 -2.741607 36.003522 0.039590 -0.606593 7.467644 0.000000 0.000000 -0.000000 -16.114959 6.770621 -2.012352 12.682973 -28.913065 0.014831 1.929162 -23.057537 -15.713566 0.000000 0.000001 0.000001 5.045395 -11.934477 30.577220 0.865893 -2.706668 35.474179 0.070892 -0.810331 9.998669 0.000002 -0.000000 -0.000001 7.161942 -14.429949 33.250990 0.651261 -2.377209 30.637841 -0.000003 -0.000003 0.000002 0.000001 -0.000000 -0.000001 11.018632 -21.954764 30.681954 0.612406 -2.310403 29.687509 0.000475 -0.066441 0.815816 0.000000 -0.000000 -0.000000 -25.423981 3.751585 -5.209910 31.960952 5.091846 2.936050 -28.225726 -0.453378 1.049256 -0.093175 -0.000001 0.000001 0.000000 -0.000000 -0.000000 -52.037476 0.054637 -7.114676 79.020972 -1.025481 -3.300640 -6.831300 -0.934606 8.904656 -6.648074 -0.000004 0.000001 -0.000000 0.000000 0.000001 
-2.052427 205.282028 7.796959 21.963573 -4.408994 2.645074 17.913491 2.999363 -2.337009 1.599525 0.754569 -0.803159 1.603581 0.732481 -0.819854 1.952720 0.005289 6.126876 -13.710831 5.899633 1.568518 0.000001 -0.000000 0.000000 0.000001 -0.000000 0.000000 0.000001 -0.000000 0.000000 -0.351505 16.183025 -3.372035 -39.126988 -51.348283 -49.022518 -0.000232 -95.263968 -0.000246 59.370046 30.291643 49.146179 -1.357008 1.517195 -30.454379 0.283034 1.800628 -17.864884 0.107279 1.117143 -10.969794 -0.000003 -0.000000 0.000000 -8.439517 -8.389170 2.613835 6.089931 13.164155 1.258730 -6.147183 3.226839 12.926878 0.000000 -0.000001 0.000002 1.322176 6.063891 -31.317514 0.254066 1.708184 -16.918763 0.009374 0.331646 -3.238121 -0.000000 -0.000001 0.000000 1.629603 6.420561 -35.580231 0.097555 1.065821 -10.459639 0.111570 1.139083 -11.187912 -0.000001 0.000000 -0.000000 0.143957 4.574862 -39.778677 0.000823 0.098355 -0.959715 -0.000002 -0.000004 -0.000003 0.000002 0.000001 0.000001 0.038126 -2.760404 -0.362114 -17.098516 16.488114 22.857962 0.000003 103.673406 -0.000003 48.545423 -13.927592 -75.760588 7.457403 -15.318542 32.122287 0.891574 -2.742334 36.014529 0.040149 -0.610850 7.520400 0.000004 -0.000001 -0.000000 -16.009502 6.688564 -2.132617 12.875966 -29.292530 0.088340 1.829352 -22.835684 -15.706321 -0.000001 -0.000002 0.000001 5.247356 -12.217633 30.759405 0.866107 -2.706958 35.478871 0.071457 -0.813578 10.039100 -0.000003 0.000000 -0.000000 7.143673 -14.401536 33.253104 0.651130 -2.376991 30.634665 0.000002 0.000001 0.000007 0.000001 0.000001 0.000001 11.054484 -21.993110 30.715969 0.614356 -2.313807 29.735874 0.000373 -0.059235 0.727068 0.000000 0.000000 0.000000 -22.277782 3.780739 -5.994756 26.075977 1.405327 3.390567 -25.653625 -0.492013 1.565786 -0.095898 -0.000001 0.000000 -0.000000 -0.000000 -0.000000 -56.603116 -0.472794 -7.574900 74.776392 -0.425847 -1.876083 -9.650132 -1.201446 9.140874 -7.458514 0.000004 -0.000001 0.000000 -0.000000 0.000000 
-3.437851 206.853256 11.080048 22.725448 -0.108391 2.416448 18.178122 3.911313 -2.079838 1.541510 0.956804 -0.988366 1.549064 0.927324 -1.010356 0.888064 -0.832386 5.821030 -12.784937 0.168037 5.677193 -0.000006 0.000000 0.000000 -0.000006 0.000000 0.000000 -0.000006 0.000000 0.000000 -0.197081 14.318718 -4.477350 -45.254487 -56.287657 -53.114406 -0.003539 -91.025098 -0.003503 58.895307 28.571754 49.734941 -1.336948 1.682913 -31.330993 0.289614 1.820896 -18.073056 0.106503 1.113152 -10.930025 -0.000002 0.000001 0.000001 -8.364915 -8.346782 2.617271 6.059293 13.027231 1.282581 -6.113747 3.325435 12.920251 0.000001 -0.000001 0.000004 1.442074 6.222491 -32.544916 0.260115 1.727917 -17.120467 0.009307 0.330484 -3.226668 -0.000000 0.000000 -0.000000 1.677463 6.467378 -36.373920 0.105047 1.105571 -10.854673 0.107179 1.116661 -10.964829 -0.000002 -0.000000 -0.000000 0.154394 4.602334 -40.055511 0.000994 0.108472 -1.058547 -0.000001 -0.000003 -0.000007 0.000000 0.000000 -0.000001 0.375234 1.780597 -0.411025 -16.015037 1.331463 21.110503 0.000018 109.512398 -0.000003 48.391436 -13.904167 -75.627167 7.731768 -15.665599 32.331831 0.891867 -2.742739 36.020652 0.040390 -0.612676 7.543068 -0.000001 0.000000 0.000001 -15.794461 6.444178 -2.254533 13.030327 -29.593765 0.147504 1.877007 -22.941673 -15.709801 0.000002 -0.000003 -0.000000 5.768395 -12.858114 31.454787 0.866996 -2.708231 35.497712 0.071562 -0.814150 10.046162 -0.000000 -0.000000 0.000000 7.304202 -14.596673 33.383987 0.651023 -2.376810 30.631933 -0.000000 -0.000000 0.000004 -0.000000 0.000000 -0.000003 11.207404 -22.149771 30.869484 0.616700 -2.317941 29.793985 0.000299 -0.052683 0.646624 -0.000002 -0.000000 -0.000000 -18.736665 3.992147 -6.164255 18.739760 -3.999701 3.554359 -22.209323 -0.216555 1.928057 -0.142319 -0.000001 -0.000000 0.000000 -0.000000 -0.000000 -60.332188 -0.843652 -8.374749 67.719311 -2.052784 -0.205139 -11.077410 -1.317038 9.132900 -8.188153 -0.000001 0.000003 -0.000000 -0.000000 0.000000 
